<svg id="svg" version="1.1" xmlns="http://www.w3.org/2000/svg" xmlns:xlink="http://www.w3.org/1999/xlink" width="400" height="400" viewBox="0, 0, 400,400"><g id="svgg"><path id="path0" d="M153.516 35.219 C 143.141 36.059,124.957 39.805,118.147 42.507 C 104.029 48.107,95.196 52.638,88.173 57.885 C 86.932 58.812,85.000 60.238,83.880 61.054 C 63.286 76.058,44.225 105.165,38.679 130.078 C 38.225 132.119,37.598 134.932,37.287 136.328 C 34.041 150.882,34.168 179.001,37.532 190.296 C 37.746 191.014,38.254 193.189,38.660 195.129 C 39.569 199.463,43.550 211.262,45.444 215.234 C 47.578 219.709,52.441 228.574,53.596 230.092 C 54.162 230.836,55.240 232.536,55.992 233.869 C 57.536 236.605,60.743 240.760,64.240 244.553 C 65.539 245.962,68.184 248.925,70.117 251.138 C 85.212 268.412,115.941 285.151,139.648 289.013 C 140.938 289.223,143.016 289.510,144.268 289.651 C 147.343 289.997,147.976 290.652,152.963 298.633 C 160.402 310.540,165.879 316.383,174.805 321.937 C 191.939 332.598,217.287 332.550,238.477 321.817 C 245.835 318.090,248.872 316.287,259.766 309.173 C 285.798 292.176,299.519 287.898,315.039 291.939 C 341.621 298.862,355.811 332.338,343.338 358.703 C 340.016 365.724,348.443 370.938,352.001 364.063 C 358.283 351.919,360.251 338.085,357.445 325.781 C 348.053 284.595,309.906 267.903,272.313 288.530 C 270.890 289.310,268.057 290.854,266.016 291.960 C 263.975 293.067,258.778 296.339,254.467 299.232 C 237.660 310.512,233.368 312.708,220.508 316.614 C 200.950 322.553,180.037 316.383,167.773 301.054 C 161.508 293.224,161.788 291.351,169.297 290.845 C 172.555 290.626,174.841 290.322,184.570 288.814 C 202.385 286.052,224.749 276.249,238.200 265.306 C 239.122 264.556,241.177 263.046,242.768 261.951 C 246.063 259.683,255.028 251.361,257.982 247.829 C 259.070 246.527,261.406 243.802,263.172 241.774 C 264.937 239.746,267.382 236.504,268.604 234.570 C 274.526 225.199,276.043 222.587,277.454 219.336 C 278.293 217.402,279.124 215.645,279.300 215.430 C 279.760 214.868,282.672 208.154,284.029 204.522 C 291.775 183.806,293.569 157.096,288.675 135.352 C 284.113 115.077,280.009 105.050,270.008 89.740 C 266.349 84.139,256.913 72.768,253.978 70.423 C 252.972 69.619,250.523 67.426,248.536 65.550 C 243.779 61.058,240.647 58.474,238.377 57.166 C 237.358 56.579,234.969 55.063,233.070 53.796 C 229.872 51.665,227.630 50.517,218.750 46.463 C 212.069 43.413,200.202 39.170,193.750 37.525 C 184.840 35.252,166.265 34.188,153.516 35.219 M167.578 46.783 C 169.995 47.342,169.612 48.292,165.406 52.179 C 155.671 61.176,150.152 66.622,149.682 67.694 C 149.400 68.339,148.257 69.951,147.143 71.278 C 146.029 72.604,144.414 74.703,143.555 75.942 C 142.695 77.181,141.426 78.926,140.735 79.820 C 138.174 83.131,132.102 92.500,130.687 95.325 C 129.883 96.929,129.083 98.418,128.910 98.633 C 127.021 100.980,117.898 120.245,115.961 125.977 C 115.308 127.910,114.083 131.039,113.238 132.929 C 112.393 134.819,111.065 138.643,110.287 141.428 C 108.226 148.796,107.459 149.416,106.690 144.336 C 105.426 135.981,105.768 122.973,107.460 115.039 C 109.218 106.799,109.558 105.452,110.953 101.176 C 111.760 98.703,112.605 95.801,112.830 94.727 C 114.396 87.265,120.401 75.165,125.794 68.607 C 127.183 66.917,129.222 64.280,130.325 62.748 C 134.156 57.422,144.780 48.108,148.712 46.628 C 150.319 46.023,164.803 46.142,167.578 46.783 M201.367 52.200 C 202.656 52.755,205.394 53.867,207.452 54.672 C 211.431 56.229,216.023 58.638,216.803 59.578 C 217.547 60.474,217.044 61.133,213.988 63.268 C 208.657 66.992,206.840 68.370,204.361 70.569 C 203.000 71.777,200.890 73.517,199.673 74.437 C 198.457 75.357,196.791 76.917,195.972 77.904 C 195.153 78.891,193.571 80.389,192.456 81.234 C 189.889 83.179,179.756 94.052,177.665 97.105 C 176.796 98.375,175.522 100.029,174.835 100.781 C 173.232 102.536,170.641 106.052,168.216 109.766 C 167.163 111.377,165.278 114.108,164.025 115.835 C 162.773 117.562,161.364 119.847,160.894 120.913 C 160.424 121.979,159.471 123.555,158.776 124.414 C 156.700 126.981,150.551 137.558,146.967 144.727 C 146.107 146.445,145.040 148.555,144.596 149.414 C 143.450 151.628,139.795 159.423,138.277 162.891 C 137.014 165.773,136.252 167.837,131.855 180.273 C 130.011 185.490,127.924 191.193,126.755 194.208 C 125.801 196.672,122.739 193.223,118.141 184.506 C 116.228 180.879,116.107 179.999,116.962 175.904 C 117.268 174.440,117.709 171.836,117.943 170.117 C 118.178 168.398,118.789 165.498,119.302 163.672 C 119.815 161.846,120.530 159.033,120.891 157.422 C 121.251 155.811,122.221 152.383,123.046 149.805 C 123.870 147.227,124.660 144.590,124.800 143.945 C 125.043 142.827,126.542 139.263,128.906 134.180 C 129.506 132.891,130.378 130.781,130.844 129.492 C 131.310 128.203,132.712 125.215,133.959 122.852 C 135.206 120.488,136.526 117.636,136.891 116.513 C 137.257 115.390,138.467 113.078,139.579 111.376 C 140.691 109.674,142.262 107.077,143.068 105.606 C 147.338 97.815,149.724 93.933,151.831 91.345 C 153.116 89.768,154.643 87.642,155.224 86.623 C 157.257 83.058,169.669 69.753,173.633 66.891 C 174.707 66.115,176.641 64.488,177.930 63.274 C 179.219 62.061,182.119 59.877,184.375 58.421 C 186.631 56.965,189.740 54.912,191.284 53.860 C 195.804 50.779,197.442 50.509,201.367 52.200 M112.889 58.496 C 112.887 58.966,111.329 61.391,109.941 63.085 C 109.236 63.945,108.280 65.616,107.818 66.797 C 107.355 67.979,106.188 70.397,105.224 72.171 C 104.260 73.945,103.147 76.318,102.751 77.444 C 102.355 78.571,101.555 80.547,100.974 81.836 C 97.086 90.459,93.812 102.384,91.964 114.648 C 91.641 116.797,91.188 119.609,90.959 120.898 C 89.598 128.541,90.398 144.660,92.723 156.445 C 94.898 167.475,104.553 192.546,108.261 196.798 C 108.880 197.507,110.071 199.440,110.908 201.094 C 111.745 202.748,113.413 205.327,114.613 206.826 C 118.277 211.396,117.675 211.939,111.091 210.002 C 100.216 206.803,96.727 204.687,93.098 199.086 C 89.922 194.185,82.091 178.212,80.880 174.162 C 80.256 172.076,79.558 170.020,79.330 169.593 C 78.622 168.271,75.867 156.634,75.384 152.930 C 75.132 150.996,74.676 148.184,74.369 146.680 C 73.310 141.482,73.427 118.009,74.540 112.500 C 75.039 110.029,76.138 104.570,76.981 100.368 C 79.791 86.373,84.164 76.720,89.502 72.732 C 90.565 71.938,92.790 70.092,94.448 68.629 C 97.501 65.935,104.006 61.328,104.758 61.328 C 104.984 61.328,105.983 60.737,106.979 60.015 C 109.295 58.334,112.895 57.409,112.889 58.496 M236.591 71.736 C 242.762 76.397,250.419 83.635,254.713 88.867 C 258.309 93.249,265.625 104.218,265.625 105.228 C 265.625 105.449,266.494 107.396,267.555 109.553 C 272.281 119.157,271.514 121.701,265.981 114.776 C 258.119 104.938,240.493 88.834,232.227 83.938 C 227.936 81.396,224.448 79.020,224.051 78.367 C 223.510 77.476,226.873 74.232,230.748 71.907 C 233.988 69.963,234.234 69.956,236.591 71.736 M212.979 88.631 C 213.688 89.252,216.286 90.938,218.755 92.376 C 221.223 93.814,223.682 95.387,224.219 95.871 C 224.756 96.355,226.071 97.351,227.141 98.083 C 230.519 100.393,236.448 105.168,238.477 107.212 C 239.551 108.294,242.128 110.657,244.204 112.463 C 246.280 114.269,248.653 116.636,249.478 117.723 C 250.302 118.811,251.923 120.761,253.080 122.057 C 260.910 130.827,272.093 148.221,274.969 156.102 C 275.595 157.818,276.460 159.827,276.890 160.568 C 279.667 165.348,279.789 172.722,277.295 185.090 C 276.131 190.863,275.852 191.709,274.839 192.550 C 274.153 193.119,273.621 192.145,271.324 186.115 C 268.827 179.562,261.106 164.484,258.631 161.328 C 258.041 160.576,256.212 157.939,254.566 155.469 C 250.202 148.920,249.265 147.736,242.788 140.587 C 232.334 129.048,229.191 126.077,220.848 119.848 C 218.457 118.062,215.645 115.944,214.598 115.140 C 210.310 111.845,205.619 108.949,197.668 104.688 C 193.978 102.710,194.003 102.040,197.892 98.580 C 199.550 97.105,202.592 94.332,204.652 92.417 C 210.350 87.123,210.950 86.849,212.979 88.631 M59.115 115.459 C 57.433 126.083,58.926 154.982,61.529 162.197 C 62.053 163.652,62.746 165.978,63.068 167.367 C 63.390 168.756,64.294 171.525,65.076 173.520 C 66.875 178.109,67.203 180.082,66.165 180.069 C 65.314 180.059,62.080 176.068,60.409 172.967 C 59.796 171.829,58.193 169.053,56.847 166.797 C 51.200 157.332,48.429 150.187,48.447 145.133 C 48.457 142.144,48.735 140.609,50.182 135.547 C 50.704 133.721,51.497 130.557,51.945 128.516 C 52.393 126.475,53.209 123.750,53.760 122.461 C 54.310 121.172,55.326 118.521,56.018 116.569 C 58.534 109.473,60.154 108.892,59.115 115.459 M189.241 116.564 C 191.266 117.510,193.504 118.721,194.215 119.255 C 194.926 119.789,196.577 120.761,197.883 121.413 C 199.189 122.066,201.474 123.599,202.961 124.818 C 204.448 126.038,206.543 127.482,207.617 128.026 C 208.691 128.571,210.801 130.198,212.305 131.641 C 213.809 133.084,217.431 136.355,220.354 138.909 C 223.277 141.464,226.705 144.754,227.971 146.219 C 229.237 147.685,231.550 150.207,233.110 151.824 C 236.035 154.856,241.302 161.945,243.946 166.406 C 244.774 167.803,246.533 170.527,247.855 172.461 C 250.778 176.735,253.262 181.264,254.529 184.631 C 255.050 186.013,255.979 188.147,256.596 189.373 C 259.382 194.915,265.138 214.519,264.687 216.927 C 264.312 218.922,256.304 231.420,253.380 234.570 C 251.021 237.113,250.953 237.021,248.837 228.413 C 247.926 224.710,246.867 221.062,246.482 220.308 C 246.097 219.553,245.255 217.180,244.611 215.034 C 243.376 210.919,241.302 206.144,238.080 200.000 C 237.009 197.959,235.862 195.625,235.530 194.812 C 235.198 194.000,234.283 192.506,233.496 191.492 C 232.709 190.478,230.233 187.188,227.994 184.180 C 225.754 181.172,223.066 177.724,222.019 176.517 C 220.973 175.311,219.031 173.015,217.704 171.416 C 213.622 166.497,203.537 156.610,199.245 153.320 C 197.004 151.601,194.367 149.471,193.386 148.585 C 191.763 147.121,184.963 142.308,181.905 140.461 C 181.222 140.049,179.404 138.906,177.865 137.922 C 176.325 136.938,174.260 135.656,173.275 135.074 C 170.478 133.419,171.154 131.333,176.729 124.414 C 177.422 123.555,178.754 121.709,179.690 120.313 C 183.920 114.002,183.832 114.037,189.241 116.564 M167.098 149.423 C 171.010 151.450,177.066 155.535,179.538 157.813 C 180.467 158.670,182.243 160.015,183.485 160.804 C 193.287 167.029,214.513 189.253,220.792 199.866 C 221.495 201.055,222.833 203.197,223.765 204.627 C 225.252 206.908,228.677 214.424,229.487 217.188 C 229.645 217.725,230.357 219.507,231.071 221.149 C 232.399 224.204,235.248 234.599,236.195 239.844 C 236.486 241.455,236.987 243.679,237.307 244.787 C 238.887 250.241,238.606 250.597,225.848 259.259 C 221.644 262.114,221.188 261.800,218.925 254.492 C 216.515 246.712,209.511 230.439,206.231 225.000 C 202.588 218.958,196.984 210.573,195.526 208.984 C 194.836 208.232,193.470 206.475,192.490 205.078 C 186.716 196.849,171.024 181.586,158.756 172.266 C 152.276 167.343,152.322 167.773,157.203 157.617 C 158.132 155.684,159.452 152.915,160.135 151.464 C 161.176 149.255,162.464 147.838,163.582 147.672 C 163.640 147.663,165.222 148.451,167.098 149.423 M149.453 183.920 C 150.291 184.529,151.943 185.903,153.125 186.975 C 154.307 188.046,156.146 189.516,157.213 190.241 C 164.646 195.294,180.839 213.515,179.248 215.037 C 177.036 217.151,165.477 218.034,151.450 217.159 C 143.707 216.676,143.105 216.475,140.216 213.420 L 138.191 211.279 138.394 209.058 C 138.759 205.071,139.469 201.811,140.622 198.828 C 141.245 197.217,142.563 193.333,143.551 190.198 C 146.056 182.252,146.503 181.776,149.453 183.920 M52.628 188.087 C 55.154 191.390,63.994 200.378,67.773 203.484 C 75.545 209.871,88.499 217.837,95.396 220.472 C 105.305 224.257,109.834 225.872,111.523 226.224 C 112.598 226.448,114.830 227.049,116.484 227.561 C 130.758 231.974,160.503 233.492,177.344 230.668 C 191.359 228.317,190.365 228.158,193.448 233.233 C 197.147 239.319,196.946 239.545,184.961 242.783 C 167.187 247.586,140.495 248.979,125.919 245.866 C 123.373 245.322,119.883 244.611,118.164 244.287 C 105.588 241.912,98.227 239.166,84.570 231.753 C 75.434 226.794,72.947 225.339,68.483 222.346 C 58.810 215.858,55.989 211.355,51.529 195.281 C 48.354 183.837,48.525 182.718,52.628 188.087 M92.245 251.603 C 93.825 252.269,96.084 253.232,97.266 253.742 C 98.447 254.252,99.732 254.673,100.121 254.678 C 100.510 254.683,102.883 255.377,105.394 256.220 C 110.604 257.969,117.311 259.766,118.630 259.766 C 119.121 259.766,120.799 260.107,122.359 260.525 C 125.009 261.234,127.335 261.556,136.426 262.474 C 148.733 263.717,167.464 262.412,179.883 259.448 C 188.333 257.431,193.117 255.929,196.963 254.085 C 200.107 252.579,201.541 252.404,202.433 253.418 C 204.268 255.506,208.064 266.475,207.482 268.007 C 206.996 269.284,202.172 271.652,197.881 272.720 C 196.179 273.144,194.157 273.811,193.389 274.202 C 192.007 274.906,188.613 275.566,180.273 276.755 C 177.910 277.092,174.952 277.626,173.699 277.942 C 167.888 279.406,150.110 278.457,137.891 276.031 C 127.845 274.037,124.157 272.787,117.737 269.198 C 117.327 268.969,114.971 267.862,112.500 266.737 C 110.029 265.613,106.662 263.892,105.018 262.913 C 103.373 261.934,101.176 260.643,100.135 260.044 C 97.998 258.815,94.288 256.186,90.735 253.382 C 86.683 250.187,87.265 249.501,92.245 251.603 " stroke="none" fill="#c35222" fill-rule="evenodd"></path><path id="path1" d="M160.742 33.045 C 160.313 33.118,157.236 33.355,153.906 33.571 C 141.608 34.368,123.403 38.328,114.224 42.202 C 96.260 49.782,87.869 54.899,75.399 65.875 C 52.338 86.173,37.736 115.156,33.609 148.818 C 32.401 158.667,33.792 183.852,35.939 191.016 C 36.164 191.768,36.713 194.053,37.157 196.094 C 40.536 211.607,51.567 233.054,62.240 244.863 C 63.565 246.328,66.406 249.513,68.555 251.941 C 76.139 260.511,89.850 271.115,99.794 276.102 C 101.734 277.074,103.936 278.253,104.688 278.720 C 111.619 283.031,134.246 290.405,143.051 291.222 C 145.964 291.492,147.275 292.255,148.298 294.273 C 163.232 323.744,188.699 336.299,220.518 329.876 C 231.694 327.621,241.720 323.016,256.250 313.468 C 286.139 293.826,298.567 289.571,314.363 293.570 C 340.346 300.148,354.413 334.166,341.393 358.936 C 338.318 364.786,344.154 370.767,350.241 368.003 C 352.762 366.858,355.535 362.086,357.752 355.078 C 368.309 321.703,345.797 283.051,313.143 278.488 C 299.703 276.610,282.786 280.271,269.949 287.836 C 268.538 288.668,265.982 290.100,264.271 291.020 C 262.559 291.939,258.428 294.542,255.091 296.803 C 247.629 301.861,247.723 301.798,244.168 304.089 C 240.276 306.597,230.770 311.521,227.899 312.517 C 201.974 321.505,180.437 316.338,167.634 298.058 C 164.329 293.339,164.498 293.133,172.461 292.196 C 187.160 290.465,190.752 289.719,202.539 285.949 C 216.155 281.594,227.916 275.354,240.277 265.929 C 241.482 265.010,243.548 263.485,244.867 262.542 C 249.647 259.122,264.379 243.838,267.823 238.726 C 274.052 229.480,277.629 223.554,278.851 220.452 C 279.283 219.358,280.246 217.253,280.992 215.774 C 292.903 192.162,296.349 160.682,290.008 133.398 C 284.763 110.827,278.296 96.996,265.354 80.662 C 257.985 71.362,244.917 59.069,238.281 55.194 C 237.314 54.629,235.015 53.147,233.171 51.900 C 231.326 50.653,228.514 49.031,226.921 48.295 C 218.925 44.604,216.135 43.359,215.859 43.359 C 215.692 43.359,214.143 42.738,212.416 41.979 C 200.951 36.938,187.874 34.002,174.219 33.404 C 165.242 33.011,161.530 32.912,160.742 33.045 M178.516 35.352 C 192.843 36.647,203.994 39.727,218.750 46.463 C 227.630 50.517,229.872 51.665,233.070 53.796 C 234.969 55.063,237.358 56.579,238.377 57.166 C 240.647 58.474,243.779 61.058,248.536 65.550 C 250.523 67.426,252.972 69.619,253.978 70.423 C 254.984 71.227,257.625 74.036,259.848 76.665 C 276.185 95.991,282.889 109.639,288.675 135.352 C 293.569 157.096,291.775 183.806,284.029 204.522 C 282.672 208.154,279.760 214.868,279.300 215.430 C 279.124 215.645,278.293 217.402,277.454 219.336 C 276.043 222.587,274.526 225.199,268.604 234.570 C 267.382 236.504,264.937 239.746,263.172 241.774 C 261.406 243.802,259.070 246.527,257.982 247.829 C 255.028 251.361,246.063 259.683,242.768 261.951 C 241.177 263.046,239.122 264.556,238.200 265.306 C 224.749 276.249,202.385 286.052,184.570 288.814 C 174.841 290.322,172.555 290.626,169.297 290.845 C 161.788 291.351,161.508 293.224,167.773 301.054 C 184.979 322.559,215.072 324.544,244.115 306.089 C 245.498 305.211,250.156 302.125,254.467 299.232 C 258.778 296.339,263.975 293.067,266.016 291.960 C 268.057 290.854,270.890 289.310,272.313 288.530 C 309.906 267.903,348.053 284.595,357.445 325.781 C 360.251 338.085,358.283 351.919,352.001 364.063 C 348.443 370.938,340.016 365.724,343.338 358.703 C 355.811 332.338,341.621 298.862,315.039 291.939 C 299.519 287.898,285.798 292.176,259.766 309.173 C 248.872 316.287,245.835 318.090,238.477 321.817 C 217.287 332.550,191.939 332.598,174.805 321.937 C 165.879 316.383,160.402 310.540,152.963 298.633 C 147.976 290.652,147.343 289.997,144.268 289.651 C 119.206 286.829,86.430 269.806,70.117 251.138 C 68.184 248.925,65.539 245.962,64.240 244.553 C 60.743 240.760,57.536 236.605,55.992 233.869 C 55.240 232.536,54.162 230.836,53.596 230.092 C 52.441 228.574,47.578 219.709,45.444 215.234 C 43.550 211.262,39.569 199.463,38.660 195.129 C 38.254 193.189,37.746 191.014,37.532 190.296 C 34.168 179.001,34.041 150.882,37.287 136.328 C 37.598 134.932,38.225 132.119,38.679 130.078 C 44.225 105.165,63.286 76.058,83.880 61.054 C 85.000 60.238,86.932 58.812,88.173 57.885 C 95.196 52.638,104.029 48.107,118.147 42.507 C 132.587 36.779,159.295 33.614,178.516 35.352 M148.712 46.628 C 144.780 48.108,134.156 57.422,130.325 62.748 C 129.222 64.280,127.183 66.917,125.794 68.607 C 120.401 75.165,114.396 87.265,112.830 94.727 C 112.605 95.801,111.760 98.703,110.953 101.176 C 109.558 105.452,109.218 106.799,107.460 115.039 C 105.768 122.973,105.426 135.981,106.690 144.336 C 107.459 149.416,108.226 148.796,110.287 141.428 C 111.065 138.643,112.393 134.819,113.238 132.929 C 114.083 131.039,115.308 127.910,115.961 125.977 C 117.898 120.245,127.021 100.980,128.910 98.633 C 129.083 98.418,129.883 96.929,130.687 95.325 C 132.102 92.500,138.174 83.131,140.735 79.820 C 141.426 78.926,142.695 77.181,143.555 75.942 C 144.414 74.703,146.029 72.604,147.143 71.278 C 148.257 69.951,149.400 68.339,149.682 67.694 C 150.152 66.622,155.671 61.176,165.406 52.179 C 171.219 46.808,170.948 46.585,158.203 46.269 C 151.836 46.110,149.891 46.184,148.712 46.628 M194.995 51.584 C 194.498 51.783,192.828 52.807,191.284 53.860 C 189.740 54.912,186.631 56.965,184.375 58.421 C 182.119 59.877,179.219 62.061,177.930 63.274 C 176.641 64.488,174.707 66.115,173.633 66.891 C 169.669 69.753,157.257 83.058,155.224 86.623 C 154.643 87.642,153.116 89.768,151.831 91.345 C 149.724 93.933,147.338 97.815,143.068 105.606 C 142.262 107.077,140.691 109.674,139.579 111.376 C 138.467 113.078,137.257 115.390,136.891 116.513 C 136.526 117.636,135.206 120.488,133.959 122.852 C 132.712 125.215,131.310 128.203,130.844 129.492 C 130.378 130.781,129.506 132.891,128.906 134.180 C 126.542 139.263,125.043 142.827,124.800 143.945 C 124.660 144.590,123.870 147.227,123.046 149.805 C 122.221 152.383,121.251 155.811,120.891 157.422 C 120.530 159.033,119.815 161.846,119.302 163.672 C 118.789 165.498,118.178 168.398,117.943 170.117 C 117.709 171.836,117.268 174.440,116.962 175.904 C 116.107 179.999,116.228 180.879,118.141 184.506 C 122.739 193.223,125.801 196.672,126.755 194.208 C 127.924 191.193,130.011 185.490,131.855 180.273 C 136.252 167.837,137.014 165.773,138.277 162.891 C 139.795 159.423,143.450 151.628,144.596 149.414 C 145.040 148.555,146.107 146.445,146.967 144.727 C 150.551 137.558,156.700 126.981,158.776 124.414 C 159.471 123.555,160.424 121.979,160.894 120.913 C 161.364 119.847,162.773 117.562,164.025 115.835 C 165.278 114.108,167.163 111.377,168.216 109.766 C 170.641 106.052,173.232 102.536,174.835 100.781 C 175.522 100.029,176.796 98.375,177.665 97.105 C 179.756 94.052,189.889 83.179,192.456 81.234 C 193.571 80.389,195.153 78.891,195.972 77.904 C 196.791 76.917,198.457 75.357,199.673 74.437 C 200.890 73.517,203.000 71.777,204.361 70.569 C 206.840 68.370,208.657 66.992,213.988 63.268 C 217.044 61.133,217.547 60.474,216.803 59.578 C 216.023 58.638,211.431 56.229,207.452 54.672 C 205.394 53.867,202.656 52.755,201.367 52.200 C 198.970 51.167,196.603 50.939,194.995 51.584 M109.375 58.483 C 109.053 58.603,107.974 59.293,106.979 60.015 C 105.983 60.737,104.984 61.328,104.758 61.328 C 104.006 61.328,97.501 65.935,94.448 68.629 C 92.790 70.092,90.565 71.938,89.502 72.732 C 84.164 76.720,79.791 86.373,76.981 100.368 C 76.138 104.570,75.039 110.029,74.540 112.500 C 73.427 118.009,73.310 141.482,74.369 146.680 C 74.676 148.184,75.132 150.996,75.384 152.930 C 75.867 156.634,78.622 168.271,79.330 169.593 C 79.558 170.020,80.256 172.076,80.880 174.162 C 82.091 178.212,89.922 194.185,93.098 199.086 C 96.727 204.687,100.216 206.803,111.091 210.002 C 117.675 211.939,118.277 211.396,114.613 206.826 C 113.413 205.327,111.745 202.748,110.908 201.094 C 110.071 199.440,108.880 197.507,108.261 196.798 C 104.553 192.546,94.898 167.475,92.723 156.445 C 90.398 144.660,89.598 128.541,90.959 120.898 C 91.188 119.609,91.641 116.797,91.964 114.648 C 93.812 102.384,97.086 90.459,100.974 81.836 C 101.555 80.547,102.355 78.571,102.751 77.444 C 103.147 76.318,104.260 73.945,105.224 72.171 C 106.188 70.397,107.355 67.979,107.818 66.797 C 108.280 65.616,109.236 63.945,109.941 63.085 C 111.329 61.391,112.887 58.966,112.889 58.496 C 112.891 58.162,110.261 58.153,109.375 58.483 M230.748 71.907 C 226.873 74.232,223.510 77.476,224.051 78.367 C 224.448 79.020,227.936 81.396,232.227 83.938 C 234.279 85.153,236.150 86.561,244.141 92.903 C 249.580 97.220,261.459 109.118,265.981 114.776 C 271.514 121.701,272.281 119.157,267.555 109.553 C 266.494 107.396,265.625 105.449,265.625 105.228 C 265.625 104.218,258.309 93.249,254.713 88.867 C 249.163 82.105,236.026 70.308,234.052 70.315 C 233.693 70.316,232.206 71.032,230.748 71.907 M209.570 88.219 C 208.926 88.613,206.713 90.502,204.652 92.417 C 202.592 94.332,199.550 97.105,197.892 98.580 C 194.003 102.040,193.978 102.710,197.668 104.688 C 205.619 108.949,210.310 111.845,214.598 115.140 C 215.645 115.944,218.457 118.062,220.848 119.848 C 229.191 126.077,232.334 129.048,242.788 140.587 C 249.265 147.736,250.202 148.920,254.566 155.469 C 256.212 157.939,258.041 160.576,258.631 161.328 C 261.106 164.484,268.827 179.562,271.324 186.115 C 273.621 192.145,274.153 193.119,274.839 192.550 C 275.852 191.709,276.131 190.863,277.295 185.090 C 279.789 172.722,279.667 165.348,276.890 160.568 C 276.460 159.827,275.595 157.818,274.969 156.102 C 272.093 148.221,260.910 130.827,253.080 122.057 C 251.923 120.761,250.302 118.811,249.478 117.723 C 248.653 116.636,246.280 114.269,244.204 112.463 C 242.128 110.657,239.551 108.294,238.477 107.212 C 236.448 105.168,230.519 100.393,227.141 98.083 C 226.071 97.351,224.756 96.355,224.219 95.871 C 223.682 95.387,221.223 93.814,218.755 92.376 C 216.286 90.938,213.688 89.252,212.979 88.631 C 211.470 87.305,211.132 87.264,209.570 88.219 M58.188 111.740 C 57.686 112.445,56.709 114.618,56.018 116.569 C 55.326 118.521,54.310 121.172,53.760 122.461 C 53.209 123.750,52.393 126.475,51.945 128.516 C 51.497 130.557,50.704 133.721,50.182 135.547 C 48.735 140.609,48.457 142.144,48.447 145.133 C 48.429 150.187,51.200 157.332,56.847 166.797 C 58.193 169.053,59.796 171.829,60.409 172.967 C 62.080 176.068,65.314 180.059,66.165 180.069 C 67.203 180.082,66.875 178.109,65.076 173.520 C 64.294 171.525,63.390 168.756,63.068 167.367 C 62.746 165.978,62.053 163.652,61.529 162.197 C 58.926 154.982,57.433 126.083,59.115 115.459 C 59.833 110.919,59.558 109.816,58.188 111.740 M182.558 116.309 C 181.917 117.114,180.626 118.916,179.690 120.313 C 178.754 121.709,177.422 123.555,176.729 124.414 C 171.154 131.333,170.478 133.419,173.275 135.074 C 174.260 135.656,176.325 136.938,177.865 137.922 C 179.404 138.906,181.222 140.049,181.905 140.461 C 184.963 142.308,191.763 147.121,193.386 148.585 C 194.367 149.471,197.004 151.601,199.245 153.320 C 203.537 156.610,213.622 166.497,217.704 171.416 C 219.031 173.015,220.973 175.311,222.019 176.517 C 223.066 177.724,225.754 181.172,227.994 184.180 C 230.233 187.188,232.709 190.478,233.496 191.492 C 234.283 192.506,235.198 194.000,235.530 194.812 C 235.862 195.625,237.009 197.959,238.080 200.000 C 241.302 206.144,243.376 210.919,244.611 215.034 C 245.255 217.180,246.097 219.553,246.482 220.308 C 246.867 221.062,247.926 224.710,248.837 228.413 C 250.953 237.021,251.021 237.113,253.380 234.570 C 256.304 231.420,264.312 218.922,264.687 216.927 C 264.971 215.408,264.197 211.934,262.047 205.078 C 258.889 195.008,257.685 191.540,256.596 189.373 C 255.979 188.147,255.050 186.013,254.529 184.631 C 253.262 181.264,250.778 176.735,247.855 172.461 C 246.533 170.527,244.774 167.803,243.946 166.406 C 241.302 161.945,236.035 154.856,233.110 151.824 C 231.550 150.207,229.237 147.685,227.971 146.219 C 226.705 144.754,223.277 141.464,220.354 138.909 C 217.431 136.355,213.809 133.084,212.305 131.641 C 210.801 130.198,208.691 128.571,207.617 128.026 C 206.543 127.482,204.448 126.038,202.961 124.818 C 201.474 123.599,199.189 122.066,197.883 121.413 C 196.577 120.761,194.926 119.789,194.215 119.255 C 192.435 117.918,185.764 114.844,184.642 114.844 C 184.050 114.844,183.311 115.363,182.558 116.309 M162.427 148.257 C 161.757 148.621,160.928 149.782,160.135 151.464 C 159.452 152.915,158.132 155.684,157.203 157.617 C 152.322 167.773,152.276 167.343,158.756 172.266 C 171.024 181.586,186.716 196.849,192.490 205.078 C 193.470 206.475,194.836 208.232,195.526 208.984 C 196.984 210.573,202.588 218.958,206.231 225.000 C 209.511 230.439,216.515 246.712,218.925 254.492 C 221.188 261.800,221.644 262.114,225.848 259.259 C 238.606 250.597,238.887 250.241,237.307 244.787 C 236.987 243.679,236.486 241.455,236.195 239.844 C 235.248 234.599,232.399 224.204,231.071 221.149 C 230.357 219.507,229.645 217.725,229.487 217.188 C 228.677 214.424,225.252 206.908,223.765 204.627 C 222.833 203.197,221.495 201.055,220.792 199.866 C 214.513 189.253,193.287 167.029,183.485 160.804 C 182.243 160.015,180.467 158.670,179.538 157.813 C 176.450 154.967,164.710 147.505,163.582 147.672 C 163.524 147.680,163.004 147.944,162.427 148.257 M145.938 183.655 C 145.614 184.119,144.539 187.063,143.551 190.198 C 142.563 193.333,141.245 197.217,140.622 198.828 C 139.469 201.811,138.759 205.071,138.394 209.058 L 138.191 211.279 140.216 213.420 C 143.105 216.475,143.707 216.676,151.450 217.159 C 165.477 218.034,177.036 217.151,179.248 215.037 C 180.839 213.515,164.646 195.294,157.213 190.241 C 156.146 189.516,154.307 188.046,153.125 186.975 C 148.513 182.793,147.024 182.106,145.938 183.655 M49.225 185.811 C 49.244 188.055,52.534 199.143,55.263 206.162 C 58.864 215.422,59.716 216.466,68.483 222.346 C 72.947 225.339,75.434 226.794,84.570 231.753 C 98.227 239.166,105.588 241.912,118.164 244.287 C 119.883 244.611,123.373 245.322,125.919 245.866 C 140.495 248.979,167.187 247.586,184.961 242.783 C 196.946 239.545,197.147 239.319,193.448 233.233 C 190.365 228.158,191.359 228.317,177.344 230.668 C 160.503 233.492,130.758 231.974,116.484 227.561 C 114.830 227.049,112.598 226.448,111.523 226.224 C 109.834 225.872,105.305 224.257,95.396 220.472 C 88.499 217.837,75.545 209.871,67.773 203.484 C 63.994 200.378,55.154 191.390,52.628 188.087 C 50.519 185.328,49.213 184.455,49.225 185.811 M88.126 250.941 C 88.488 251.884,96.478 257.940,100.135 260.044 C 101.176 260.643,103.373 261.934,105.018 262.913 C 106.662 263.892,110.029 265.613,112.500 266.737 C 114.971 267.862,117.327 268.969,117.737 269.198 C 124.157 272.787,127.845 274.037,137.891 276.031 C 150.110 278.457,167.888 279.406,173.699 277.942 C 174.952 277.626,177.910 277.092,180.273 276.755 C 188.613 275.566,192.007 274.906,193.389 274.202 C 194.157 273.811,196.179 273.144,197.881 272.720 C 202.172 271.652,206.996 269.284,207.482 268.007 C 208.064 266.475,204.268 255.506,202.433 253.418 C 201.541 252.404,200.107 252.579,196.963 254.085 C 193.117 255.929,188.333 257.431,179.883 259.448 C 167.464 262.412,148.733 263.717,136.426 262.474 C 127.335 261.556,125.009 261.234,122.359 260.525 C 120.799 260.107,119.121 259.766,118.630 259.766 C 117.311 259.766,110.604 257.969,105.394 256.220 C 102.883 255.377,100.510 254.683,100.121 254.678 C 99.732 254.673,98.447 254.252,97.266 253.742 C 89.027 250.187,87.678 249.773,88.126 250.941 " stroke="none" fill="#e77c3b" fill-rule="evenodd"></path><path id="path2" d="M0.000 200.000 L 0.000 400.000 200.000 400.000 L 400.000 400.000 400.000 200.000 L 400.000 0.000 200.000 0.000 L 0.000 0.000 0.000 200.000 M174.219 33.404 C 187.874 34.002,200.951 36.938,212.416 41.979 C 214.143 42.738,215.692 43.359,215.859 43.359 C 216.135 43.359,218.925 44.604,226.921 48.295 C 228.514 49.031,231.326 50.653,233.171 51.900 C 235.015 53.147,237.314 54.629,238.281 55.194 C 244.917 59.069,257.985 71.362,265.354 80.662 C 278.296 96.996,284.763 110.827,290.008 133.398 C 296.349 160.682,292.903 192.162,280.992 215.774 C 280.246 217.253,279.283 219.358,278.851 220.452 C 277.629 223.554,274.052 229.480,267.823 238.726 C 264.379 243.838,249.647 259.122,244.867 262.542 C 243.548 263.485,241.482 265.010,240.277 265.929 C 227.916 275.354,216.155 281.594,202.539 285.949 C 190.752 289.719,187.160 290.465,172.461 292.196 C 164.498 293.133,164.329 293.339,167.634 298.058 C 180.437 316.338,201.974 321.505,227.899 312.517 C 230.770 311.521,240.276 306.597,244.168 304.089 C 247.723 301.798,247.629 301.861,255.091 296.803 C 258.428 294.542,262.559 291.939,264.271 291.020 C 265.982 290.100,268.538 288.668,269.949 287.836 C 282.786 280.271,299.703 276.610,313.143 278.488 C 345.797 283.051,368.309 321.703,357.752 355.078 C 355.535 362.086,352.762 366.858,350.241 368.003 C 344.154 370.767,338.318 364.786,341.393 358.936 C 354.413 334.166,340.346 300.148,314.363 293.570 C 298.567 289.571,286.139 293.826,256.250 313.468 C 227.450 332.394,202.271 336.602,179.067 326.366 C 168.391 321.657,155.205 307.903,148.298 294.273 C 147.275 292.255,145.964 291.492,143.051 291.222 C 134.246 290.405,111.619 283.031,104.688 278.720 C 103.936 278.253,101.734 277.074,99.794 276.102 C 89.850 271.115,76.139 260.511,68.555 251.941 C 66.406 249.513,63.565 246.328,62.240 244.863 C 51.567 233.054,40.536 211.607,37.157 196.094 C 36.713 194.053,36.164 191.768,35.939 191.016 C 33.792 183.852,32.401 158.667,33.609 148.818 C 37.736 115.156,52.338 86.173,75.399 65.875 C 87.869 54.899,96.260 49.782,114.224 42.202 C 123.403 38.328,141.608 34.368,153.906 33.571 C 157.236 33.355,160.313 33.118,160.742 33.045 C 161.530 32.912,165.242 33.011,174.219 33.404 " stroke="none" fill="none" fill-rule="evenodd"></path></g></svg>